<svg class="header_icon__k1SFn" width="16" height="16" viewBox="0 0 430 430" fill="none" xmlns="http://www.w3.org/2000/svg"><path d="M280.943 239.62H149.062L182.573 163.54H247.503L280.943 239.62Z" fill="#5c68ce"></path><path d="M363.57 239.62H280.94L247.5 163.54H312.32L363.57 239.62Z" fill="#5c68ce"></path><path d="M182.572 163.54L149.062 239.62H66.4219L117.672 163.54H182.572Z" fill="#5c68ce"></path><path d="M215.002 390.8L66.4219 239.62H149.062L215.002 390.8Z" fill="#5c68ce"></path><path d="M363.57 239.62L215 390.8L280.94 239.62H363.57Z" fill="#5c68ce"></path><path d="M280.943 239.62L215.003 390.8L149.062 239.62H280.943Z" fill="#5c68ce"></path><g opacity="0.5"><path d="M363.73 239.77H281.08L247.66 163.69H312.48L363.73 239.77Z" fill="#5c68ce"></path></g><g opacity="0.5"><path d="M182.722 163.69L149.222 239.77H66.582L117.832 163.69H182.722Z" fill="#5c68ce"></path></g><g opacity="0.5"><path d="M280.94 239.62L215.01 390.8L149.07 239.62H280.94Z" fill="#5c68ce"></path></g></svg>